<?xml version="1.0" standalone="no"?><!DOCTYPE svg PUBLIC "-//W3C//DTD SVG 1.1//EN" "http://www.w3.org/Graphics/SVG/1.1/DTD/svg11.dtd"><svg t="1705024473610" class="icon" viewBox="0 0 1024 1024" version="1.1" xmlns="http://www.w3.org/2000/svg" p-id="8241" xmlns:xlink="http://www.w3.org/1999/xlink" width="200" height="200"><path d="M482.669714 541.330286h-205.336381v-58.660572h205.336381v-205.336381h58.660572v205.336381h205.336381v58.660572h-205.336381v205.336381h-58.660572v-205.336381z" p-id="8242"></path><path d="M512 938.666667c235.641905 0 426.666667-191.024762 426.666667-426.666667S747.641905 85.333333 512 85.333333 85.333333 276.358095 85.333333 512 276.358095 938.666667 512 938.666667z m0-58.660572c-203.239619 0-368.006095-164.766476-368.006095-368.006095 0-203.239619 164.766476-368.006095 368.006095-368.006095 203.239619 0 368.006095 164.766476 368.006095 368.006095 0 203.239619-164.766476 368.006095-368.006095 368.006095z" p-id="8243"></path></svg>