<?xml version="1.0" standalone="no"?><!DOCTYPE svg PUBLIC "-//W3C//DTD SVG 1.1//EN" "http://www.w3.org/Graphics/SVG/1.1/DTD/svg11.dtd"><svg t="1705026091001" class="icon" viewBox="0 0 1024 1024" version="1.1" xmlns="http://www.w3.org/2000/svg" p-id="47279" xmlns:xlink="http://www.w3.org/1999/xlink" width="200" height="200"><path d="M928 704l-160 0L768 288c0-19.2-12.8-32-32-32L320 256 320 96c0-19.2-12.8-32-32-32S256 76.8 256 96l0 160L96 256C76.8 256 64 268.8 64 288s12.8 32 32 32l160 0 0 416c0 19.2 12.8 32 32 32l416 0 0 160c0 19.2 12.8 32 32 32s32-12.8 32-32l0-160 160 0c19.2 0 32-12.8 32-32S947.2 704 928 704zM320 704 320 320l384 0 0 384L320 704z" p-id="47280"></path></svg>