<?xml version="1.0" standalone="no"?><!DOCTYPE svg PUBLIC "-//W3C//DTD SVG 1.1//EN" "http://www.w3.org/Graphics/SVG/1.1/DTD/svg11.dtd"><svg t="1702780914686" class="icon" viewBox="0 0 1024 1024" version="1.1" xmlns="http://www.w3.org/2000/svg" p-id="8597" xmlns:xlink="http://www.w3.org/1999/xlink" width="200" height="200"><path d="M680.057905 484.62019c20.601905 12.434286 20.601905 42.300952 0 54.75962l-242.176 146.480761c-21.308952 12.897524-48.542476-2.462476-48.542476-27.379809V365.519238a31.98781 31.98781 0 0 1 48.566857-27.379809l242.151619 146.480761z m-232.057905-71.801904v198.363428L611.986286 512l-163.986286-99.181714z" p-id="8598"></path><path d="M938.666667 512c0 235.641905-191.024762 426.666667-426.666667 426.666667S85.333333 747.641905 85.333333 512 276.358095 85.333333 512 85.333333 938.666667 276.358095 938.666667 512z m-58.660572 0c0-203.239619-164.766476-368.006095-368.006095-368.006095-203.239619 0-368.006095 164.766476-368.006095 368.006095 0 203.239619 164.766476 368.006095 368.006095 368.006095 203.239619 0 368.006095-164.766476 368.006095-368.006095z" p-id="8599"></path></svg>