<?xml version="1.0" standalone="no"?><!DOCTYPE svg PUBLIC "-//W3C//DTD SVG 1.1//EN" "http://www.w3.org/Graphics/SVG/1.1/DTD/svg11.dtd"><svg t="1705026124785" class="icon" viewBox="0 0 1024 1024" version="1.1" xmlns="http://www.w3.org/2000/svg" p-id="57197" xmlns:xlink="http://www.w3.org/1999/xlink" width="200" height="200"><path d="M475.672381 528.822857l-102.570667 140.361143a138.678857 138.678857 0 1 0 38.546286 46.689524L512 578.56l100.327619 137.313524a138.678857 138.678857 0 1 0 38.546286-46.689524l-392.533334-537.161143-47.347809 34.620953L475.672381 528.822857z m-107.666286 249.831619a79.993905 79.993905 0 1 1-160.01219 0 79.993905 79.993905 0 0 1 160.01219 0z m448 0a79.993905 79.993905 0 1 1-160.01219 0 79.993905 79.993905 0 0 1 160.01219 0z" p-id="57198"></path><path d="M574.756571 492.690286l-36.327619-49.737143 227.230477-310.930286 47.347809 34.620953-238.250667 326.046476z" p-id="57199"></path></svg>