<?xml version="1.0" standalone="no"?><!DOCTYPE svg PUBLIC "-//W3C//DTD SVG 1.1//EN" "http://www.w3.org/Graphics/SVG/1.1/DTD/svg11.dtd"><svg t="1702779158769" class="icon" viewBox="0 0 1024 1024" version="1.1" xmlns="http://www.w3.org/2000/svg" p-id="7745" xmlns:xlink="http://www.w3.org/1999/xlink" width="200" height="200"><path d="M341.918476 426.081524L427.885714 512l-85.942857 85.918476 41.496381 41.496381L510.780952 512l-127.390476-127.414857-41.496381 41.496381z" p-id="7746"></path><path d="M768 800.01219v-148.601904l123.075048 68.681143A31.98781 31.98781 0 0 0 938.666667 692.175238V331.849143a31.98781 31.98781 0 0 0-47.591619-27.940572L768 372.589714V223.98781c0-17.65181-14.336-31.98781-32.01219-31.98781H117.345524c-17.65181 0-31.98781 14.336-31.98781 32.01219v575.97562c0 17.67619 14.336 32.01219 32.012191 32.01219h618.666666c17.65181 0 31.98781-14.336 31.98781-32.01219zM143.993905 250.63619h565.345524V773.36381H143.993905V250.63619z m736.01219 396.068572L768 584.216381v-144.432762l112.006095-62.512762v269.458286z" p-id="7747"></path></svg>